<svg xmlns="http://www.w3.org/2000/svg" xmlns:xlink="http://www.w3.org/1999/xlink" width="500" zoomAndPan="magnify" viewBox="0 0 375 374.999991" height="500" preserveAspectRatio="xMidYMid meet" version="1.0"><defs><clipPath id="1a58bad076"><path d="M 70.167969 70.167969 L 304.917969 70.167969 L 304.917969 304.917969 L 70.167969 304.917969 Z M 70.167969 70.167969 " clip-rule="nonzero"/></clipPath></defs><g clip-path="url(#1a58bad076)"><path fill="#c6bcaf" d="M 187.496094 70.167969 C 185.578125 70.167969 183.660156 70.214844 181.742188 70.3125 C 179.824219 70.40625 177.910156 70.546875 175.996094 70.734375 C 174.085938 70.921875 172.179688 71.15625 170.28125 71.441406 C 168.382812 71.722656 166.492188 72.050781 164.609375 72.425781 C 162.726562 72.796875 160.851562 73.21875 158.988281 73.6875 C 157.125 74.152344 155.277344 74.664062 153.4375 75.222656 C 151.601562 75.777344 149.777344 76.382812 147.972656 77.027344 C 146.164062 77.675781 144.371094 78.367188 142.597656 79.101562 C 140.824219 79.835938 139.070312 80.613281 137.332031 81.433594 C 135.597656 82.253906 133.882812 83.117188 132.191406 84.023438 C 130.496094 84.929688 128.824219 85.875 127.179688 86.863281 C 125.53125 87.847656 123.910156 88.875 122.3125 89.941406 C 120.71875 91.007812 119.148438 92.113281 117.605469 93.257812 C 116.0625 94.402344 114.550781 95.582031 113.066406 96.800781 C 111.582031 98.019531 110.128906 99.273438 108.703125 100.5625 C 107.28125 101.851562 105.890625 103.175781 104.535156 104.535156 C 103.175781 105.890625 101.851562 107.28125 100.5625 108.703125 C 99.273438 110.128906 98.019531 111.582031 96.800781 113.066406 C 95.582031 114.550781 94.402344 116.0625 93.257812 117.605469 C 92.113281 119.148438 91.007812 120.71875 89.941406 122.3125 C 88.875 123.910156 87.847656 125.53125 86.863281 127.179688 C 85.875 128.824219 84.929688 130.496094 84.023438 132.191406 C 83.117188 133.882812 82.253906 135.597656 81.433594 137.332031 C 80.613281 139.070312 79.835938 140.824219 79.101562 142.597656 C 78.367188 144.371094 77.675781 146.164062 77.027344 147.972656 C 76.382812 149.777344 75.777344 151.601562 75.222656 153.4375 C 74.664062 155.277344 74.152344 157.125 73.6875 158.988281 C 73.21875 160.851562 72.796875 162.726562 72.425781 164.609375 C 72.050781 166.492188 71.722656 168.382812 71.441406 170.28125 C 71.15625 172.179688 70.921875 174.085938 70.734375 175.996094 C 70.546875 177.910156 70.40625 179.824219 70.3125 181.742188 C 70.214844 183.660156 70.167969 185.578125 70.167969 187.496094 C 70.167969 189.417969 70.214844 191.335938 70.3125 193.253906 C 70.40625 195.171875 70.546875 197.085938 70.734375 198.996094 C 70.921875 200.910156 71.15625 202.8125 71.441406 204.714844 C 71.722656 206.613281 72.050781 208.503906 72.425781 210.386719 C 72.796875 212.269531 73.21875 214.144531 73.6875 216.007812 C 74.152344 217.867188 74.664062 219.71875 75.222656 221.554688 C 75.777344 223.394531 76.382812 225.214844 77.027344 227.023438 C 77.675781 228.832031 78.367188 230.625 79.101562 232.398438 C 79.835938 234.171875 80.613281 235.925781 81.433594 237.660156 C 82.253906 239.398438 83.117188 241.113281 84.023438 242.804688 C 84.929688 244.5 85.875 246.167969 86.863281 247.816406 C 87.847656 249.464844 88.875 251.085938 89.941406 252.683594 C 91.007812 254.277344 92.113281 255.847656 93.257812 257.390625 C 94.402344 258.933594 95.582031 260.445312 96.800781 261.929688 C 98.019531 263.414062 99.273438 264.867188 100.5625 266.289062 C 101.851562 267.714844 103.175781 269.101562 104.535156 270.460938 C 105.890625 271.820312 107.28125 273.144531 108.703125 274.433594 C 110.128906 275.722656 111.582031 276.976562 113.066406 278.195312 C 114.550781 279.410156 116.0625 280.59375 117.605469 281.738281 C 119.148438 282.878906 120.71875 283.984375 122.3125 285.050781 C 123.910156 286.121094 125.53125 287.144531 127.179688 288.132812 C 128.824219 289.121094 130.496094 290.066406 132.191406 290.972656 C 133.882812 291.878906 135.597656 292.738281 137.332031 293.5625 C 139.070312 294.382812 140.824219 295.160156 142.597656 295.894531 C 144.371094 296.628906 146.164062 297.320312 147.972656 297.96875 C 149.777344 298.613281 151.601562 299.214844 153.4375 299.773438 C 155.277344 300.332031 157.125 300.84375 158.988281 301.308594 C 160.851562 301.777344 162.726562 302.195312 164.609375 302.570312 C 166.492188 302.945312 168.382812 303.273438 170.28125 303.554688 C 172.179688 303.835938 174.085938 304.074219 175.996094 304.261719 C 177.910156 304.449219 179.824219 304.589844 181.742188 304.683594 C 183.660156 304.777344 185.578125 304.824219 187.496094 304.824219 C 189.417969 304.824219 191.335938 304.777344 193.253906 304.683594 C 195.171875 304.589844 197.085938 304.449219 198.996094 304.261719 C 200.910156 304.074219 202.8125 303.835938 204.714844 303.554688 C 206.613281 303.273438 208.503906 302.945312 210.386719 302.570312 C 212.269531 302.195312 214.144531 301.777344 216.007812 301.308594 C 217.867188 300.84375 219.71875 300.332031 221.554688 299.773438 C 223.394531 299.214844 225.214844 298.613281 227.023438 297.96875 C 228.832031 297.320312 230.625 296.628906 232.398438 295.894531 C 234.171875 295.160156 235.925781 294.382812 237.660156 293.5625 C 239.398438 292.738281 241.113281 291.878906 242.804688 290.972656 C 244.5 290.066406 246.167969 289.121094 247.816406 288.132812 C 249.464844 287.144531 251.085938 286.121094 252.683594 285.050781 C 254.277344 283.984375 255.847656 282.878906 257.390625 281.738281 C 258.933594 280.59375 260.445312 279.410156 261.929688 278.195312 C 263.414062 276.976562 264.867188 275.722656 266.289062 274.433594 C 267.714844 273.144531 269.101562 271.820312 270.460938 270.460938 C 271.820312 269.101562 273.144531 267.714844 274.433594 266.289062 C 275.722656 264.867188 276.976562 263.414062 278.195312 261.929688 C 279.410156 260.445312 280.59375 258.933594 281.738281 257.390625 C 282.878906 255.847656 283.984375 254.277344 285.050781 252.683594 C 286.121094 251.085938 287.144531 249.464844 288.132812 247.816406 C 289.121094 246.167969 290.066406 244.5 290.972656 242.804688 C 291.878906 241.113281 292.738281 239.398438 293.5625 237.660156 C 294.382812 235.925781 295.160156 234.171875 295.894531 232.398438 C 296.628906 230.625 297.320312 228.832031 297.96875 227.023438 C 298.613281 225.214844 299.214844 223.394531 299.773438 221.554688 C 300.332031 219.71875 300.84375 217.867188 301.308594 216.007812 C 301.777344 214.144531 302.195312 212.269531 302.570312 210.386719 C 302.945312 208.503906 303.273438 206.613281 303.554688 204.714844 C 303.835938 202.8125 304.074219 200.910156 304.261719 198.996094 C 304.449219 197.085938 304.589844 195.171875 304.683594 193.253906 C 304.777344 191.335938 304.824219 189.417969 304.824219 187.496094 C 304.824219 185.578125 304.777344 183.660156 304.683594 181.742188 C 304.589844 179.824219 304.449219 177.910156 304.257812 175.996094 C 304.070312 174.085938 303.835938 172.183594 303.554688 170.28125 C 303.273438 168.382812 302.945312 166.492188 302.570312 164.609375 C 302.195312 162.726562 301.773438 160.851562 301.308594 158.992188 C 300.839844 157.128906 300.328125 155.277344 299.769531 153.441406 C 299.214844 151.601562 298.609375 149.78125 297.964844 147.972656 C 297.316406 146.164062 296.625 144.375 295.890625 142.601562 C 295.15625 140.828125 294.378906 139.070312 293.558594 137.335938 C 292.734375 135.601562 291.871094 133.886719 290.96875 132.191406 C 290.0625 130.5 289.117188 128.828125 288.128906 127.183594 C 287.140625 125.535156 286.113281 123.914062 285.046875 122.316406 C 283.980469 120.722656 282.875 119.152344 281.730469 117.609375 C 280.589844 116.066406 279.40625 114.554688 278.1875 113.070312 C 276.972656 111.585938 275.71875 110.132812 274.425781 108.710938 C 273.136719 107.285156 271.816406 105.894531 270.457031 104.539062 C 269.097656 103.179688 267.710938 101.855469 266.285156 100.566406 C 264.863281 99.277344 263.410156 98.023438 261.925781 96.804688 C 260.441406 95.589844 258.929688 94.40625 257.386719 93.261719 C 255.84375 92.121094 254.273438 91.015625 252.679688 89.949219 C 251.082031 88.878906 249.460938 87.855469 247.8125 86.867188 C 246.167969 85.878906 244.496094 84.933594 242.804688 84.027344 C 241.109375 83.121094 239.394531 82.257812 237.660156 81.4375 C 235.921875 80.617188 234.167969 79.839844 232.394531 79.105469 C 230.621094 78.371094 228.832031 77.679688 227.023438 77.03125 C 225.214844 76.386719 223.390625 75.78125 221.554688 75.226562 C 219.71875 74.667969 217.867188 74.15625 216.003906 73.6875 C 214.140625 73.222656 212.269531 72.800781 210.386719 72.425781 C 208.503906 72.050781 206.613281 71.722656 204.710938 71.441406 C 202.8125 71.160156 200.910156 70.925781 198.996094 70.734375 C 197.085938 70.546875 195.171875 70.40625 193.253906 70.3125 C 191.335938 70.21875 189.417969 70.167969 187.496094 70.167969 Z M 187.496094 114.167969 C 188.191406 114.167969 188.886719 114.1875 189.578125 114.226562 C 190.269531 114.265625 190.960938 114.328125 191.652344 114.40625 C 192.339844 114.484375 193.027344 114.585938 193.710938 114.707031 C 194.394531 114.824219 195.074219 114.964844 195.75 115.121094 C 196.425781 115.28125 197.097656 115.460938 197.761719 115.65625 C 198.429688 115.855469 199.085938 116.070312 199.738281 116.308594 C 200.394531 116.542969 201.039062 116.796875 201.675781 117.070312 C 202.316406 117.34375 202.945312 117.636719 203.566406 117.945312 C 204.1875 118.253906 204.796875 118.582031 205.402344 118.925781 C 206.003906 119.273438 206.59375 119.632812 207.175781 120.011719 C 207.757812 120.390625 208.328125 120.789062 208.886719 121.199219 C 209.445312 121.613281 209.992188 122.039062 210.523438 122.484375 C 211.058594 122.929688 211.578125 123.386719 212.085938 123.859375 C 212.59375 124.335938 213.085938 124.824219 213.566406 125.324219 C 214.042969 125.828125 214.507812 126.34375 214.957031 126.871094 C 215.40625 127.402344 215.839844 127.945312 216.257812 128.5 C 216.675781 129.050781 217.074219 129.617188 217.460938 130.195312 C 217.847656 130.773438 218.214844 131.363281 218.566406 131.960938 C 218.914062 132.558594 219.25 133.167969 219.566406 133.785156 C 219.878906 134.40625 220.179688 135.03125 220.457031 135.667969 C 220.738281 136.300781 220.996094 136.945312 221.238281 137.59375 C 221.480469 138.246094 221.707031 138.902344 221.910156 139.566406 C 222.113281 140.230469 222.296875 140.898438 222.464844 141.574219 C 222.628906 142.246094 222.777344 142.925781 222.902344 143.605469 C 223.027344 144.289062 223.132812 144.976562 223.222656 145.664062 C 223.308594 146.351562 223.375 147.042969 223.421875 147.734375 C 223.46875 148.429688 223.496094 149.121094 223.5 149.816406 C 223.507812 150.511719 223.492188 151.203125 223.460938 151.898438 C 223.425781 152.589844 223.371094 153.28125 223.300781 153.972656 C 223.226562 154.664062 223.132812 155.351562 223.019531 156.035156 C 222.90625 156.71875 222.773438 157.398438 222.621094 158.078125 C 222.464844 158.753906 222.292969 159.425781 222.101562 160.09375 C 221.910156 160.761719 221.699219 161.421875 221.46875 162.078125 C 221.238281 162.730469 220.992188 163.378906 220.722656 164.019531 C 220.457031 164.660156 220.171875 165.292969 219.867188 165.917969 C 219.5625 166.539062 219.242188 167.15625 218.902344 167.761719 C 218.5625 168.367188 218.203125 168.960938 217.832031 169.546875 C 217.457031 170.128906 217.066406 170.703125 216.660156 171.265625 C 216.253906 171.828125 215.828125 172.378906 215.390625 172.914062 C 214.949219 173.453125 214.496094 173.976562 214.027344 174.488281 C 213.558594 175 213.074219 175.496094 212.574219 175.980469 C 212.078125 176.464844 211.566406 176.933594 211.039062 177.386719 C 210.515625 177.839844 209.976562 178.277344 209.425781 178.703125 C 208.875 179.125 208.3125 179.53125 207.738281 179.921875 C 207.164062 180.308594 206.582031 180.683594 205.984375 181.039062 C 205.390625 181.394531 204.785156 181.734375 204.167969 182.054688 C 203.554688 182.378906 202.929688 182.679688 202.296875 182.964844 C 201.664062 183.25 201.023438 183.515625 200.375 183.765625 C 199.726562 184.011719 199.070312 184.242188 198.410156 184.453125 C 197.75 184.664062 197.082031 184.851562 196.410156 185.023438 C 195.734375 185.195312 195.058594 185.347656 194.378906 185.480469 C 193.695312 185.613281 193.011719 185.726562 192.324219 185.820312 C 191.636719 185.910156 190.945312 185.984375 190.253906 186.035156 C 189.5625 186.089844 188.867188 186.121094 188.175781 186.136719 C 187.480469 186.148438 186.789062 186.140625 186.09375 186.113281 C 185.398438 186.085938 184.707031 186.039062 184.015625 185.96875 C 183.324219 185.902344 182.636719 185.816406 181.953125 185.707031 C 181.265625 185.601562 180.585938 185.472656 179.90625 185.328125 C 179.226562 185.179688 178.554688 185.015625 177.886719 184.828125 C 177.214844 184.644531 176.554688 184.4375 175.894531 184.214844 C 175.238281 183.988281 174.589844 183.746094 173.945312 183.484375 C 173.304688 183.222656 172.667969 182.941406 172.042969 182.644531 C 171.414062 182.347656 170.796875 182.03125 170.191406 181.695312 C 169.582031 181.363281 168.984375 181.011719 168.394531 180.640625 C 138.183594 161.503906 151.273438 114.535156 187.496094 114.167969 Z M 229.699219 260.828125 L 145.296875 260.828125 C 144.425781 260.824219 143.554688 260.78125 142.691406 260.695312 C 141.824219 260.609375 140.964844 260.480469 140.109375 260.308594 C 139.253906 260.136719 138.410156 259.925781 137.578125 259.667969 C 136.746094 259.414062 135.925781 259.121094 135.125 258.789062 C 134.320312 258.453125 133.53125 258.082031 132.765625 257.667969 C 131.996094 257.257812 131.253906 256.808594 130.527344 256.324219 C 129.804688 255.839844 129.105469 255.320312 128.433594 254.769531 C 127.761719 254.214844 127.117188 253.628906 126.5 253.015625 C 125.886719 252.398438 125.300781 251.753906 124.75 251.078125 C 124.199219 250.40625 123.679688 249.707031 123.195312 248.984375 C 122.714844 248.257812 122.265625 247.511719 121.855469 246.746094 C 121.445312 245.976562 121.074219 245.191406 120.742188 244.386719 C 120.40625 243.582031 120.113281 242.761719 119.863281 241.929688 C 119.609375 241.09375 119.398438 240.25 119.226562 239.398438 C 119.058594 238.542969 118.929688 237.683594 118.84375 236.816406 C 118.757812 235.949219 118.714844 235.078125 118.714844 234.207031 C 118.714844 211.660156 135.324219 192.191406 159.15625 183.429688 C 160.136719 184.257812 161.152344 185.042969 162.203125 185.785156 C 163.25 186.523438 164.332031 187.21875 165.441406 187.863281 C 166.550781 188.507812 167.6875 189.105469 168.851562 189.648438 C 170.015625 190.195312 171.199219 190.691406 172.40625 191.132812 C 173.613281 191.574219 174.835938 191.960938 176.074219 192.296875 C 177.316406 192.628906 178.570312 192.910156 179.835938 193.132812 C 181.097656 193.359375 182.371094 193.527344 183.652344 193.640625 C 184.929688 193.753906 186.214844 193.808594 187.496094 193.808594 C 188.78125 193.808594 190.066406 193.753906 191.34375 193.640625 C 192.625 193.527344 193.894531 193.359375 195.160156 193.132812 C 196.425781 192.910156 197.679688 192.628906 198.917969 192.296875 C 200.160156 191.960938 201.382812 191.574219 202.589844 191.132812 C 203.796875 190.691406 204.980469 190.195312 206.144531 189.648438 C 207.304688 189.105469 208.441406 188.507812 209.554688 187.863281 C 210.664062 187.21875 211.746094 186.523438 212.792969 185.785156 C 213.84375 185.042969 214.859375 184.257812 215.839844 183.429688 C 239.671875 192.191406 256.28125 211.660156 256.28125 234.207031 C 256.28125 235.078125 256.238281 235.949219 256.152344 236.816406 C 256.066406 237.683594 255.9375 238.542969 255.769531 239.398438 C 255.597656 240.25 255.386719 241.09375 255.132812 241.929688 C 254.882812 242.761719 254.589844 243.582031 254.253906 244.386719 C 253.921875 245.191406 253.550781 245.976562 253.140625 246.746094 C 252.730469 247.511719 252.28125 248.257812 251.796875 248.984375 C 251.316406 249.707031 250.796875 250.40625 250.246094 251.078125 C 249.691406 251.753906 249.109375 252.398438 248.492188 253.015625 C 247.878906 253.628906 247.234375 254.214844 246.5625 254.769531 C 245.890625 255.320312 245.191406 255.839844 244.46875 256.324219 C 243.742188 256.808594 242.996094 257.257812 242.230469 257.667969 C 241.460938 258.082031 240.675781 258.453125 239.871094 258.789062 C 239.066406 259.121094 238.25 259.414062 237.417969 259.667969 C 236.582031 259.925781 235.738281 260.136719 234.886719 260.308594 C 234.03125 260.480469 233.171875 260.609375 232.304688 260.695312 C 231.4375 260.78125 230.570312 260.824219 229.699219 260.828125 Z M 229.699219 260.828125 " fill-opacity="1" fill-rule="nonzero"/></g></svg>